<mxfile host="app.diagrams.net" modified="2022-08-26T00:56:28.354Z" agent="5.0 (Macintosh; Intel Mac OS X 10_15_7) AppleWebKit/605.1.15 (KHTML, like Gecko) Version/15.6.1 Safari/605.1.15" etag="Epl9uSG8SGFBIAoJRy2t" version="20.2.7" type="github">
  <diagram id="YGDp1pWwWp1Xit0VBKz_" name="Page-1">
    <mxGraphModel dx="1725" dy="496" grid="1" gridSize="10" guides="1" tooltips="1" connect="1" arrows="1" fold="1" page="1" pageScale="1" pageWidth="827" pageHeight="1169" math="0" shadow="0">
      <root>
        <mxCell id="0" />
        <mxCell id="1" parent="0" />
        <mxCell id="3hFLhpNyAstVCuSb7c-p-1" value="Inicio" style="strokeWidth=2;html=1;shape=mxgraph.flowchart.terminator;whiteSpace=wrap;" parent="1" vertex="1">
          <mxGeometry x="195" y="50" width="100" height="40" as="geometry" />
        </mxCell>
        <mxCell id="3hFLhpNyAstVCuSb7c-p-2" style="edgeStyle=orthogonalEdgeStyle;rounded=0;orthogonalLoop=1;jettySize=auto;html=1;exitX=0.5;exitY=1;exitDx=0;exitDy=0;entryX=0.5;entryY=0;entryDx=0;entryDy=0;entryPerimeter=0;" parent="1" source="3hFLhpNyAstVCuSb7c-p-3" target="3hFLhpNyAstVCuSb7c-p-10" edge="1">
          <mxGeometry relative="1" as="geometry" />
        </mxCell>
        <mxCell id="3hFLhpNyAstVCuSb7c-p-3" value="sueldo" style="shape=parallelogram;html=1;strokeWidth=2;perimeter=parallelogramPerimeter;whiteSpace=wrap;rounded=1;arcSize=12;size=0.23;" parent="1" vertex="1">
          <mxGeometry x="150" y="130" width="190" height="40" as="geometry" />
        </mxCell>
        <mxCell id="3hFLhpNyAstVCuSb7c-p-6" value="Fin" style="strokeWidth=2;html=1;shape=mxgraph.flowchart.terminator;whiteSpace=wrap;" parent="1" vertex="1">
          <mxGeometry x="195" y="585" width="100" height="40" as="geometry" />
        </mxCell>
        <mxCell id="3hFLhpNyAstVCuSb7c-p-7" value="" style="endArrow=classic;html=1;rounded=0;exitX=0.5;exitY=1;exitDx=0;exitDy=0;exitPerimeter=0;entryX=0.5;entryY=0;entryDx=0;entryDy=0;" parent="1" source="3hFLhpNyAstVCuSb7c-p-1" target="3hFLhpNyAstVCuSb7c-p-3" edge="1">
          <mxGeometry width="50" height="50" relative="1" as="geometry">
            <mxPoint x="75" y="250" as="sourcePoint" />
            <mxPoint x="125" y="200" as="targetPoint" />
          </mxGeometry>
        </mxCell>
        <mxCell id="3hFLhpNyAstVCuSb7c-p-8" style="edgeStyle=orthogonalEdgeStyle;rounded=0;orthogonalLoop=1;jettySize=auto;html=1;exitX=0;exitY=0.5;exitDx=0;exitDy=0;exitPerimeter=0;entryX=0.5;entryY=0;entryDx=0;entryDy=0;" parent="1" source="3hFLhpNyAstVCuSb7c-p-10" target="3hFLhpNyAstVCuSb7c-p-19" edge="1">
          <mxGeometry relative="1" as="geometry" />
        </mxCell>
        <mxCell id="3hFLhpNyAstVCuSb7c-p-22" value="SI" style="edgeLabel;html=1;align=center;verticalAlign=middle;resizable=0;points=[];" parent="3hFLhpNyAstVCuSb7c-p-8" vertex="1" connectable="0">
          <mxGeometry x="-0.3495" y="1" relative="1" as="geometry">
            <mxPoint as="offset" />
          </mxGeometry>
        </mxCell>
        <mxCell id="3hFLhpNyAstVCuSb7c-p-9" style="edgeStyle=orthogonalEdgeStyle;rounded=0;orthogonalLoop=1;jettySize=auto;html=1;exitX=1;exitY=0.5;exitDx=0;exitDy=0;exitPerimeter=0;entryX=0.5;entryY=0;entryDx=0;entryDy=0;" parent="1" source="3hFLhpNyAstVCuSb7c-p-10" target="do95jBhfOzvmu3lKLqMX-1" edge="1">
          <mxGeometry relative="1" as="geometry">
            <mxPoint x="490" y="410" as="targetPoint" />
            <Array as="points">
              <mxPoint x="386" y="245" />
            </Array>
          </mxGeometry>
        </mxCell>
        <mxCell id="3hFLhpNyAstVCuSb7c-p-23" value="NO" style="edgeLabel;html=1;align=center;verticalAlign=middle;resizable=0;points=[];" parent="3hFLhpNyAstVCuSb7c-p-9" vertex="1" connectable="0">
          <mxGeometry x="-0.3232" relative="1" as="geometry">
            <mxPoint as="offset" />
          </mxGeometry>
        </mxCell>
        <mxCell id="3hFLhpNyAstVCuSb7c-p-10" value="sueldo &amp;lt; 8000" style="strokeWidth=2;html=1;shape=mxgraph.flowchart.decision;whiteSpace=wrap;" parent="1" vertex="1">
          <mxGeometry x="177.5" y="210" width="135" height="70" as="geometry" />
        </mxCell>
        <mxCell id="3hFLhpNyAstVCuSb7c-p-26" style="edgeStyle=orthogonalEdgeStyle;rounded=0;orthogonalLoop=1;jettySize=auto;html=1;entryX=0.5;entryY=0;entryDx=0;entryDy=0;entryPerimeter=0;" parent="1" source="3hFLhpNyAstVCuSb7c-p-12" target="3hFLhpNyAstVCuSb7c-p-6" edge="1">
          <mxGeometry relative="1" as="geometry" />
        </mxCell>
        <mxCell id="3hFLhpNyAstVCuSb7c-p-12" value="sueldo" style="strokeWidth=2;html=1;shape=mxgraph.flowchart.document2;whiteSpace=wrap;size=0.25;" parent="1" vertex="1">
          <mxGeometry x="195" y="500" width="100" height="60" as="geometry" />
        </mxCell>
        <mxCell id="3hFLhpNyAstVCuSb7c-p-13" value="&lt;meta charset=&quot;utf-8&quot;&gt;&lt;div style=&quot;font-style: normal; font-variant-caps: normal; font-weight: normal; letter-spacing: normal; text-align: start; text-indent: 0px; text-transform: none; word-spacing: 0px; -webkit-text-stroke-width: 0px; text-decoration: none; color: rgb(171, 178, 191); background-color: rgb(40, 44, 52); font-family: &amp;quot;Fira Code&amp;quot;, &amp;quot;Menlo for Powerline&amp;quot;, Menlo, Monaco, &amp;quot;Courier New&amp;quot;, monospace; font-size: 12px; line-height: 18px;&quot;&gt;&lt;div&gt;&lt;span style=&quot;color: rgb(127, 132, 142); font-style: italic;&quot;&gt;DeclaraciÃ³n de variables e ingrese de datos&lt;/span&gt;&lt;/div&gt;&lt;/div&gt;" style="text;whiteSpace=wrap;html=1;" parent="1" vertex="1">
          <mxGeometry x="365" y="135" width="340" height="30" as="geometry" />
        </mxCell>
        <mxCell id="3hFLhpNyAstVCuSb7c-p-14" value="&lt;div style=&quot;font-style: normal; font-variant-caps: normal; font-weight: normal; letter-spacing: normal; text-align: start; text-indent: 0px; text-transform: none; word-spacing: 0px; -webkit-text-stroke-width: 0px; text-decoration: none; color: rgb(171, 178, 191); background-color: rgb(40, 44, 52); font-family: &amp;quot;Fira Code&amp;quot;, &amp;quot;Menlo for Powerline&amp;quot;, Menlo, Monaco, &amp;quot;Courier New&amp;quot;, monospace; font-size: 12px; line-height: 18px;&quot;&gt;&lt;div&gt;&lt;span style=&quot;color: rgb(127, 132, 142); font-style: italic;&quot;&gt;Mostrar resultados al usuario&lt;/span&gt;&lt;/div&gt;&lt;/div&gt;" style="text;whiteSpace=wrap;html=1;" parent="1" vertex="1">
          <mxGeometry x="320" y="515" width="240" height="30" as="geometry" />
        </mxCell>
        <mxCell id="3hFLhpNyAstVCuSb7c-p-15" value="&lt;div style=&quot;font-style: normal; font-variant-caps: normal; font-weight: normal; letter-spacing: normal; text-align: start; text-indent: 0px; text-transform: none; word-spacing: 0px; -webkit-text-stroke-width: 0px; text-decoration: none; color: rgb(171, 178, 191); background-color: rgb(40, 44, 52); font-family: &amp;quot;Fira Code&amp;quot;, &amp;quot;Menlo for Powerline&amp;quot;, Menlo, Monaco, &amp;quot;Courier New&amp;quot;, monospace; font-size: 12px; line-height: 18px;&quot;&gt;&lt;div&gt;&lt;span style=&quot;color: rgb(127, 132, 142); font-style: italic;&quot;&gt;Desarrollo de operaciones&lt;/span&gt;&lt;/div&gt;&lt;/div&gt;" style="text;whiteSpace=wrap;html=1;" parent="1" vertex="1">
          <mxGeometry x="520" y="320" width="210" height="30" as="geometry" />
        </mxCell>
        <mxCell id="3hFLhpNyAstVCuSb7c-p-20" style="edgeStyle=orthogonalEdgeStyle;rounded=0;orthogonalLoop=1;jettySize=auto;html=1;exitX=0.5;exitY=1;exitDx=0;exitDy=0;entryX=0.5;entryY=0;entryDx=0;entryDy=0;" parent="1" source="3hFLhpNyAstVCuSb7c-p-19" target="82Qx9nhs1aMmojEaYFoo-1" edge="1">
          <mxGeometry relative="1" as="geometry">
            <mxPoint x="245" y="400" as="targetPoint" />
          </mxGeometry>
        </mxCell>
        <mxCell id="3hFLhpNyAstVCuSb7c-p-19" value="aumento = sueldo*0.12" style="rounded=1;whiteSpace=wrap;html=1;absoluteArcSize=1;arcSize=14;strokeWidth=2;" parent="1" vertex="1">
          <mxGeometry x="-10" y="310" width="212" height="50" as="geometry" />
        </mxCell>
        <mxCell id="3hFLhpNyAstVCuSb7c-p-25" style="edgeStyle=orthogonalEdgeStyle;rounded=0;orthogonalLoop=1;jettySize=auto;html=1;exitX=0.5;exitY=1;exitDx=0;exitDy=0;entryX=0.5;entryY=0;entryDx=0;entryDy=0;" parent="1" source="do95jBhfOzvmu3lKLqMX-1" target="82Qx9nhs1aMmojEaYFoo-1" edge="1">
          <mxGeometry relative="1" as="geometry">
            <mxPoint x="245" y="430" as="sourcePoint" />
          </mxGeometry>
        </mxCell>
        <mxCell id="do95jBhfOzvmu3lKLqMX-1" value="aumento = sueldo*0.08" style="rounded=1;whiteSpace=wrap;html=1;absoluteArcSize=1;arcSize=14;strokeWidth=2;" parent="1" vertex="1">
          <mxGeometry x="280" y="310" width="212" height="50" as="geometry" />
        </mxCell>
        <mxCell id="82Qx9nhs1aMmojEaYFoo-2" style="edgeStyle=orthogonalEdgeStyle;rounded=0;orthogonalLoop=1;jettySize=auto;html=1;exitX=0.5;exitY=1;exitDx=0;exitDy=0;" edge="1" parent="1" source="82Qx9nhs1aMmojEaYFoo-1" target="3hFLhpNyAstVCuSb7c-p-12">
          <mxGeometry relative="1" as="geometry" />
        </mxCell>
        <mxCell id="82Qx9nhs1aMmojEaYFoo-1" value="sueldo = sueldo + aumento" style="rounded=1;whiteSpace=wrap;html=1;absoluteArcSize=1;arcSize=14;strokeWidth=2;" vertex="1" parent="1">
          <mxGeometry x="139" y="420" width="212" height="50" as="geometry" />
        </mxCell>
      </root>
    </mxGraphModel>
  </diagram>
</mxfile>
